<?xml version="1.0" standalone="no"?>
<!DOCTYPE svg PUBLIC "-//W3C//DTD SVG 20010904//EN"
 "http://www.w3.org/TR/2001/REC-SVG-20010904/DTD/svg10.dtd">
<svg version="1.0" xmlns="http://www.w3.org/2000/svg"
 width="341.000000pt" height="341.000000pt" viewBox="0 0 341.000000 341.000000"
 preserveAspectRatio="xMidYMid meet">
<metadata>
Created by potrace 1.14, written by Peter Selinger 2001-2017
</metadata>
<g transform="translate(0.000000,341.000000) scale(0.100000,-0.100000)"
fill="#000000" stroke="none">
<path d="M1455 3374 c-543 -85 -1008 -423 -1254 -911 -99 -198 -154 -391 -173
-615 -59 -688 307 -1339 927 -1651 153 -76 445 -166 547 -168 26 0 36 -3 26
-7 -10 -4 72 -7 181 -7 117 0 197 4 193 9 -3 5 9 6 28 3 20 -4 38 -2 47 5 8 6
28 12 46 13 18 1 42 7 52 12 11 6 61 20 110 32 127 32 381 158 510 255 291
218 499 503 605 826 219 665 23 1372 -505 1820 -248 210 -528 336 -857 385
-121 18 -361 18 -483 -1z m310 -74 c3 -5 19 -10 35 -10 25 0 28 -3 25 -27 -2
-16 -6 -90 -10 -165 l-8 -138 -48 0 c-42 0 -53 4 -76 31 -44 50 -186 168 -195
163 -5 -3 -5 -11 -1 -17 4 -6 8 -20 9 -32 21 -152 21 -155 5 -159 -62 -16 -68
-16 -79 9 -12 27 -47 166 -57 230 -4 22 -9 48 -11 57 -4 13 6 18 53 24 47 6
53 9 33 15 -16 5 -6 6 28 4 58 -4 54 -1 172 -110 l65 -60 3 88 c2 70 6 87 18
87 8 0 12 5 9 10 -3 6 1 10 9 10 8 0 18 -4 21 -10z m269 -30 c12 0 30 -6 40
-13 21 -15 23 -1 -29 -216 -14 -58 -27 -106 -29 -108 -2 -2 -28 2 -57 9 -47
11 -54 16 -55 38 -2 55 31 255 47 287 10 18 16 20 36 12 13 -5 34 -9 47 -9z
m-831 -100 c68 -13 118 -85 108 -155 -6 -39 -41 -93 -78 -122 -21 -16 -86 -55
-144 -86 l-107 -57 -84 128 c-46 70 -87 132 -91 139 -11 18 142 105 246 138
37 12 64 25 60 30 -5 4 6 4 22 0 17 -4 47 -11 68 -15z m1158 0 c119 -33 190
-86 224 -167 17 -41 18 -44 6 -61 -7 -11 -18 -9 -59 12 -53 27 -64 38 -69 70
-8 49 -84 87 -135 67 -41 -16 -69 -67 -66 -121 3 -38 8 -48 37 -67 19 -13 42
-21 50 -18 8 3 18 0 22 -6 4 -7 14 -9 24 -6 9 4 13 12 9 18 -5 8 -2 10 7 5 8
-4 3 2 -11 13 -14 11 -30 21 -36 21 -6 0 -17 6 -23 14 -9 10 -8 16 4 26 9 7
14 19 11 26 -4 11 0 11 22 1 40 -17 135 -73 161 -94 l23 -19 -47 -67 c-25 -37
-52 -67 -58 -67 -20 0 -34 14 -38 35 -3 16 -15 21 -55 26 -81 10 -163 60 -214
131 -26 35 -28 45 -23 91 9 73 71 137 135 137 19 0 20 2 8 10 -25 16 12 12 91
-10z m-1566 -342 l105 -133 -37 -38 c-21 -20 -43 -36 -49 -35 -7 2 -62 55
-122 119 l-110 115 49 43 c27 23 47 47 44 52 -4 5 -1 9 5 9 5 0 57 -60 115
-132z m2012 68 l48 -44 -42 -49 -41 -49 57 -62 c32 -34 60 -62 63 -62 3 0 25
16 49 35 24 19 47 35 50 35 3 0 25 -26 47 -59 39 -54 40 -59 24 -73 -29 -25
-243 -168 -251 -168 -5 0 -25 21 -44 46 l-36 47 49 39 c28 22 50 44 50 49 0 6
-4 7 -10 4 -5 -3 -7 0 -5 7 3 7 -17 36 -45 63 l-51 50 -45 -48 -45 -48 -39 31
c-22 17 -42 36 -45 41 -6 9 192 259 205 259 4 0 30 -20 57 -44z m-905 -17
c221 -31 463 -155 638 -328 115 -114 257 -319 234 -339 -4 -4 -9 -2 -11 5 -14
38 -110 183 -166 250 -73 87 -79 92 -192 178 -552 417 -1348 260 -1706 -337
-26 -43 -50 -84 -52 -91 -2 -7 -8 -9 -12 -5 -10 9 56 128 108 197 119 155 246
262 415 349 166 85 282 118 477 136 52 4 183 -3 267 -15z m-1344 -171 c37 -34
93 -86 125 -115 l58 -54 -37 -44 c-20 -25 -39 -45 -43 -45 -3 0 -48 32 -99 71
-52 39 -96 69 -98 66 -6 -5 46 -117 90 -195 l36 -63 -23 -40 c-21 -37 -25 -39
-69 -39 -26 0 -93 -5 -148 -11 l-101 -12 43 -20 c24 -10 70 -29 103 -41 100
-36 98 -34 79 -91 -9 -28 -18 -52 -20 -53 -3 -4 -245 63 -286 80 -32 12 -31 9
-17 63 5 22 11 48 14 58 9 40 61 129 83 143 18 12 45 15 111 12 l87 -3 -49 92
c-46 87 -65 139 -48 129 4 -3 28 23 53 57 25 34 55 71 67 81 11 10 18 23 15
27 -13 22 12 4 74 -53z m2572 -208 c62 -87 190 -421 175 -458 -3 -8 -16 -12
-32 -10 -27 3 -30 9 -79 155 0 2 -51 -15 -113 -37 -61 -22 -117 -40 -124 -40
-7 0 -19 15 -26 33 -31 71 -40 97 -31 92 11 -7 243 107 233 114 -5 3 -22 35
-40 70 -32 63 -32 65 -12 78 10 8 17 19 14 24 -15 24 16 5 35 -21z m-2380
-559 c0 -5 12 -12 28 -14 15 -2 -54 -4 -153 -4 -99 0 -164 3 -145 6 l35 5 -45
6 c-27 4 20 8 118 8 95 1 162 -2 162 -7z m375 0 l-150 -6 170 -5 170 -6 -178
-2 c-106 -1 -176 2 -173 7 4 5 0 11 -6 14 -7 2 61 4 152 4 l165 -1 -150 -5z
m398 2 c-7 -2 -21 -2 -30 0 -10 3 -4 5 12 5 17 0 24 -2 18 -5z m44 1 c-3 -3
-12 -4 -19 -1 -8 3 -5 6 6 6 11 1 17 -2 13 -5z m96 -1 c-7 -2 -21 -2 -30 0
-10 3 -4 5 12 5 17 0 24 -2 18 -5z m550 0 c-23 -2 -64 -2 -90 0 -26 2 -7 3 42
3 50 0 71 -1 48 -3z m421 -5 c-5 -8 0 -9 14 -6 12 4 22 2 22 -3 0 -5 -16 -9
-36 -9 -19 0 -33 4 -29 9 3 5 -3 12 -12 14 -10 3 -3 5 15 6 23 1 31 -3 26 -11z
m366 -3 c0 -8 -5 -15 -11 -15 -5 0 -8 4 -4 9 3 5 -3 12 -12 14 -14 4 -13 5 5
6 13 1 22 -5 22 -14z m-1342 -12 c-32 -2 -84 -2 -115 0 -32 2 -6 3 57 3 63 0
89 -1 58 -3z m595 0 c-29 -2 -77 -2 -105 0 -29 2 -6 3 52 3 58 0 81 -1 53 -3z
m-433 -28 c11 -13 10 -14 -4 -9 -9 3 -16 10 -16 15 0 13 6 11 20 -6z m616 -13
c-4 -3 -14 2 -24 12 -16 18 -16 18 6 6 13 -6 21 -14 18 -18z m-636 -168 c0 -8
-4 -12 -10 -9 -5 3 -10 13 -10 21 0 8 5 12 10 9 6 -3 10 -13 10 -21z m600 6
c0 -5 -2 -10 -4 -10 -3 0 -8 5 -11 10 -3 6 -1 10 4 10 6 0 11 -4 11 -10z
m-1203 -17 c-20 -2 -52 -2 -70 0 -17 2 0 4 38 4 39 0 53 -2 32 -4z m21 -20
c-21 -2 -55 -2 -75 0 -21 2 -4 4 37 4 41 0 58 -2 38 -4z m45 -250 c-29 -2 -77
-2 -105 0 -29 2 -6 3 52 3 58 0 81 -1 53 -3z m404 -9 c-3 -3 -12 -4 -19 -1 -8
3 -5 6 6 6 11 1 17 -2 13 -5z m606 -1 c-7 -2 -19 -2 -25 0 -7 3 -2 5 12 5 14
0 19 -2 13 -5z m478 -285 c-58 -104 -112 -176 -205 -269 -227 -228 -516 -349
-835 -349 -209 0 -372 39 -551 132 -162 83 -287 186 -391 321 -67 86 -148 227
-132 227 5 0 23 -28 40 -63 149 -284 457 -511 793 -583 123 -26 363 -24 486 4
337 77 637 304 785 595 16 31 34 57 39 57 6 0 -7 -33 -29 -72z m-421 -528
c-12 -7 -8 -10 14 -10 38 0 66 -26 66 -60 0 -25 4 -28 45 -35 119 -17 90 -136
-55 -235 -59 -40 -200 -115 -204 -108 -25 38 -43 76 -85 177 -28 66 -51 123
-51 126 0 3 6 5 14 5 15 0 108 51 170 93 21 15 44 27 51 27 7 0 15 7 19 15 3
8 11 15 18 15 9 0 8 -3 -2 -10z m-1204 -31 c46 -15 79 -34 116 -68 48 -44 51
-51 56 -104 5 -63 3 -65 -54 -41 -46 19 -57 33 -42 52 8 10 6 20 -9 40 -27 37
-63 48 -101 33 -38 -16 -82 -78 -82 -115 0 -36 40 -72 91 -80 44 -7 70 1 48
15 -37 23 13 5 60 -22 l54 -31 -27 -26 c-70 -70 -245 4 -328 138 -25 40 -20
102 11 137 34 39 89 73 121 74 23 0 23 1 5 9 -42 18 15 10 81 -11z m345 -160
c15 -8 15 -17 -8 -111 -39 -163 -44 -150 65 -168 51 -8 93 -18 92 -22 0 -5 0
-20 0 -34 l0 -27 -65 7 c-61 6 -253 50 -263 60 -2 3 3 28 12 56 9 28 14 55 11
60 -4 6 -1 10 4 10 6 0 11 4 11 9 0 5 5 22 12 38 14 33 13 30 23 68 15 55 34
76 64 69 14 -4 33 -11 42 -15z m564 -99 c46 -135 45 -160 -1 -198 -66 -55
-214 -79 -289 -48 -57 24 -67 51 -69 186 -1 106 1 120 16 120 9 0 18 4 20 9 2
6 18 6 38 2 l35 -7 8 -79 c15 -156 16 -158 67 -167 47 -8 95 4 103 25 5 16 2
37 -22 132 -11 44 -23 90 -26 103 -5 19 -1 22 24 22 16 0 33 5 37 11 11 19 23
-3 59 -111z"/>
<path d="M1731 3273 c6 -38 -3 -183 -11 -183 -6 0 -30 19 -53 42 -54 53 -156
138 -166 138 -4 0 -33 -5 -64 -11 -68 -14 -68 -11 -31 -166 34 -146 33 -143
52 -143 40 1 43 11 27 119 -9 57 -13 106 -11 109 10 9 84 -49 159 -123 63 -63
78 -73 114 -76 l42 -4 5 60 c3 33 8 102 11 153 l7 92 -41 0 c-23 0 -40 -3 -40
-7z"/>
<path d="M1944 3120 c-22 -157 -19 -170 35 -170 27 0 28 2 62 143 23 94 32
144 25 149 -6 3 -32 9 -57 13 l-46 7 -19 -142z"/>
<path d="M1038 3137 c-57 -21 -154 -70 -207 -106 -12 -7 1 -32 64 -125 42 -64
83 -120 89 -125 7 -6 49 11 121 50 130 70 181 119 190 184 18 120 -103 177
-257 122z m98 -42 c41 -17 65 -65 59 -115 -5 -39 -45 -84 -99 -112 -47 -24
-47 -24 -110 93 l-46 86 27 18 c27 18 96 43 121 44 7 1 28 -6 48 -14z"/>
<path d="M1003 3070 c-24 -10 -43 -22 -43 -26 0 -13 80 -152 94 -163 17 -15
59 4 92 41 42 46 35 144 -11 162 -31 12 -90 6 -132 -14z"/>
<path d="M2223 3146 c-37 -17 -68 -62 -77 -112 -10 -51 27 -120 83 -156 50
-32 129 -58 173 -58 26 0 32 -8 29 -36 -1 -7 5 -14 14 -17 18 -7 102 110 89
123 -5 5 -43 27 -85 49 -64 35 -78 39 -83 26 -5 -14 32 -45 69 -58 6 -2 1 -14
-9 -26 -53 -59 -186 14 -186 102 0 61 58 127 112 127 63 0 138 -55 138 -102 0
-13 14 -25 43 -38 47 -21 54 -16 37 34 -34 103 -244 189 -347 142z"/>
<path d="M647 2895 c-24 -22 -35 -40 -31 -48 18 -29 188 -207 199 -207 6 0 24
13 39 29 l27 28 -66 84 c-36 46 -77 99 -91 117 -14 17 -28 32 -32 32 -4 0 -24
-16 -45 -35z"/>
<path d="M2708 2878 c-51 -66 -54 -70 -93 -117 -53 -64 -57 -76 -37 -93 50
-41 47 -41 95 9 l46 48 46 -45 c26 -25 56 -58 67 -74 l21 -29 -48 -41 -48 -42
17 -32 c30 -57 25 -59 194 56 l92 63 -14 27 c-8 15 -25 37 -38 50 l-24 22 -48
-37 -48 -37 -63 70 c-35 38 -64 73 -65 79 0 5 18 28 40 51 l41 41 -41 36 c-22
21 -44 37 -49 37 -5 0 -24 -19 -43 -42z"/>
<path d="M464 2708 c-45 -48 -94 -120 -94 -137 0 -13 16 -45 84 -176 21 -40
11 -45 -107 -45 l-97 0 -19 -31 c-27 -44 -74 -190 -64 -199 9 -9 246 -80 267
-80 16 0 41 53 33 72 -2 7 -57 33 -121 57 -64 24 -115 49 -113 55 5 14 56 24
195 39 107 11 114 14 130 39 15 26 15 29 -7 65 -12 21 -42 79 -67 129 -41 86
-53 124 -37 124 3 0 48 -32 100 -70 52 -39 99 -73 106 -76 7 -2 24 11 39 30
22 27 25 36 15 48 -14 17 -205 188 -210 188 -2 0 -17 -15 -33 -32z"/>
<path d="M268 2363 c7 -3 16 -2 19 1 4 3 -2 6 -13 5 -11 0 -14 -3 -6 -6z"/>
<path d="M3094 2489 c-4 -6 8 -42 27 -80 18 -38 31 -70 28 -73 -2 -2 -55 -29
-116 -60 -62 -31 -113 -58 -113 -60 0 -3 9 -25 20 -50 l19 -46 115 41 c64 23
121 39 128 36 8 -2 24 -39 37 -81 23 -75 36 -91 48 -60 9 23 -59 221 -117 341
-49 100 -61 115 -76 92z"/>
<path d="M543 1933 c15 -2 39 -2 55 0 15 2 2 4 -28 4 -30 0 -43 -2 -27 -4z"/>
<path d="M663 1933 c15 -2 39 -2 55 0 15 2 2 4 -28 4 -30 0 -43 -2 -27 -4z"/>
<path d="M2283 568 c-163 -92 -193 -111 -193 -120 0 -16 103 -253 114 -260 13
-9 45 5 127 53 129 77 185 141 177 205 -3 25 -8 29 -37 32 -18 2 -46 -2 -63
-9 -38 -16 -44 -7 -24 35 21 44 20 52 -6 70 -30 21 -48 20 -95 -6z m37 -58
c14 -14 17 -25 11 -42 -8 -22 -95 -88 -116 -88 -6 0 -19 16 -29 35 -22 41 -20
44 51 86 57 34 58 34 83 9z m105 -111 c14 -22 -18 -67 -72 -103 -31 -20 -63
-35 -71 -34 -7 2 -23 20 -35 40 -21 37 -21 38 -1 52 10 8 45 29 78 45 58 31
83 31 101 0z"/>
<path d="M2227 480 c-41 -26 -46 -33 -38 -49 18 -33 42 -34 85 -4 29 20 40 36
40 53 1 36 -30 36 -87 0z"/>
<path d="M2297 371 l-57 -38 24 -26 c13 -14 21 -29 17 -33 -12 -14 80 43 104
64 16 14 24 30 22 44 -6 36 -44 32 -110 -11z"/>
<path d="M2400 490 c-18 -12 -2 -12 25 0 13 6 15 9 5 9 -8 0 -22 -4 -30 -9z"/>
<path d="M985 547 c-29 -16 -45 -35 -59 -69 -22 -54 -18 -78 26 -144 60 -88
204 -142 267 -98 l23 16 -33 20 c-29 18 -38 19 -66 9 -51 -19 -124 15 -144 67
-19 49 36 136 101 160 51 19 120 -30 120 -85 0 -27 5 -35 26 -43 39 -15 44
-13 44 25 0 72 -124 165 -219 165 -29 0 -61 -9 -86 -23z"/>
<path d="M1399 393 c-14 -34 -89 -252 -89 -257 0 -13 276 -69 293 -59 4 2 7
10 7 17 0 8 -33 19 -92 29 -92 17 -109 26 -102 56 2 9 15 61 29 116 13 55 21
103 17 106 -4 4 -17 10 -29 14 -19 5 -25 1 -34 -22z"/>
<path d="M1944 396 c-3 -8 4 -52 16 -98 27 -106 28 -137 4 -155 -28 -20 -90
-34 -119 -27 -39 10 -53 40 -60 129 -10 124 -10 125 -50 125 l-35 0 0 -124 c0
-121 1 -125 25 -144 70 -55 264 -24 319 50 l19 27 -34 113 c-30 96 -38 113
-57 116 -13 2 -25 -3 -28 -12z"/>
<path d="M1613 3 c15 -2 39 -2 55 0 15 2 2 4 -28 4 -30 0 -43 -2 -27 -4z"/>
<path d="M1713 3 c9 -2 23 -2 30 0 6 3 -1 5 -18 5 -16 0 -22 -2 -12 -5z"/>
</g>
</svg>
