<svg width="26" height="22" viewBox="0 0 26 22" fill="none" xmlns="http://www.w3.org/2000/svg">
<path d="M25.187 9.9814C25.187 8.31685 23.7814 6.96753 22.0475 6.96753C21.1791 6.96753 20.3946 7.30739 19.8265 7.85451C18.0708 6.76747 15.8278 6.07474 13.3644 5.96667C13.3659 4.96257 13.8344 4.02655 14.6504 3.3981C15.4679 2.7686 16.5236 2.53285 17.5463 2.75089L17.6867 2.78083C17.6853 2.81462 17.6814 2.84774 17.6814 2.88186C17.6814 4.27134 18.8548 5.39776 20.3021 5.39776C21.7495 5.39776 22.9229 4.27134 22.9229 2.88186C22.9229 1.49233 21.7495 0.365967 20.3021 0.365967C19.3714 0.365967 18.5562 0.832999 18.0912 1.53489L17.8401 1.48133C16.4141 1.17716 14.9423 1.50601 13.8027 2.38367C12.6645 3.26026 12.0113 4.56602 12.0098 5.96667C9.54695 6.07469 7.30439 6.76708 5.5489 7.85362C4.98066 7.30638 4.19501 6.96748 3.32646 6.96748C1.59261 6.96753 0.187012 8.31685 0.187012 9.9814C0.187012 11.1412 0.870614 12.1459 1.87106 12.6498C1.79508 13.0229 1.75511 13.4043 1.75511 13.7926C1.75511 18.1232 6.64947 21.6339 12.687 21.6339C18.7245 21.6339 23.6189 18.1232 23.6189 13.7926C23.6189 13.4046 23.5789 13.0233 23.503 12.6503C24.5035 12.1464 25.187 11.1413 25.187 9.9814ZM20.3021 1.66647C21.0003 1.66647 21.5682 2.2117 21.5682 2.88192C21.5682 3.55209 21.0003 4.09731 20.3021 4.09731C19.604 4.09731 19.036 3.55209 19.036 2.88192C19.036 2.2117 19.604 1.66647 20.3021 1.66647ZM1.54165 9.9814C1.54165 9.03661 2.34231 8.26798 3.32646 8.26798C3.74797 8.26798 4.13486 8.40973 4.44012 8.64543C3.48529 9.43182 2.74607 10.3562 2.2871 11.3712C1.83633 11.0604 1.54165 10.5539 1.54165 9.9814ZM19.6062 18.2954C17.774 19.6096 15.3167 20.3334 12.687 20.3334C10.0574 20.3334 7.60005 19.6096 5.76788 18.2954C4.05381 17.066 3.1098 15.4668 3.1098 13.7926C3.1098 12.1183 4.05381 10.5192 5.76788 9.28973C7.60005 7.97554 10.0574 7.25176 12.687 7.25176C15.3167 7.25176 17.774 7.97554 19.6062 9.28973C21.3203 10.5192 22.2643 12.1183 22.2643 13.7926C22.2642 15.4668 21.3203 17.066 19.6062 18.2954ZM23.0865 11.3704C22.6274 10.3556 21.8883 9.43149 20.9336 8.64521C21.2389 8.40951 21.626 8.26798 22.0476 8.26798C23.0317 8.26798 23.8324 9.03661 23.8324 9.9814C23.8323 10.5538 23.5373 11.0597 23.0865 11.3704Z" fill="#C152F5"/>
</svg>
