<svg id="SvgjsSvg1001" width="288" height="288" xmlns="http://www.w3.org/2000/svg" version="1.1" xmlns:xlink="http://www.w3.org/1999/xlink" xmlns:svgjs="http://svgjs.com/svgjs"><defs id="SvgjsDefs1002"></defs><g id="SvgjsG1008"><svg xmlns="http://www.w3.org/2000/svg" width="288" height="288" version="1.0" viewBox="0 0 20 20"><g transform="matrix(.00125 0 0 -.00125 0 20)" fill="#c152f5" class="color000 svgShape"><path d="M5825 13764 c-194 -23 -583 -91 -800 -139 -911 -203 -1689 -537 -2283 -980 -139 -103 -214 -180 -314 -320 -196 -275 -514 -965 -763 -1655 -625 -1727 -1017 -3739 -1028 -5280 l-2 -265 26 -55 c31 -66 151 -248 226 -345 364 -467 895 -856 1596 -1169 662 -296 1451 -511 2081 -567 72 -6 152 -8 180 -4 62 8 145 48 184 89 17 17 202 270 412 561 210 292 385 533 389 538 4 4 90 -11 192 -33 645 -139 1283 -203 2014 -203 719 0 1329 60 1975 195 107 23 203 41 213 42 14 1 129 -151 416 -549 430 -596 432 -597 550 -632 50 -14 73 -15 202 -4 946 76 2153 497 2912 1014 427 291 819 703 1000 1052 31 58 32 65 35 210 4 170 -12 588 -34 870 -124 1610 -555 3449 -1172 4996 -153 383 -366 835 -492 1044 -179 295 -279 394 -636 628 -730 479 -1749 823 -2839 958 -271 33 -352 20 -445 -73 -67 -67 -143 -256 -210 -523 -18 -71 -36 -134 -40 -138 -4 -5 -85 3 -181 17 -541 79 -1080 114 -1484 96 -352 -16 -662 -45 -1019 -96 -98 -14 -180 -23 -182 -21 -3 2 -18 58 -35 123 -42 168 -116 381 -159 461 -25 47 -52 80 -86 106 -90 69 -165 78 -399 51z m1 -749 c38 -122 40 -116 -46 -137 -508 -125 -979 -285 -1406 -478 -343 -154 -780 -400 -856 -480 -110 -117 -110 -299 -1 -420 60 -67 129 -102 215 -108 86 -6 130 9 260 91 574 358 1373 658 2215 831 991 204 1859 238 2813 110 1055 -141 2079 -471 2781 -896 217 -131 221 -133 319 -133 100 0 158 23 223 88 121 121 124 329 5 448 -39 39 -316 202 -540 319 -489 253 -1073 470 -1650 611 -98 24 -138 38 -138 48 0 19 49 181 55 181 2 0 68 -9 147 -20 1004 -144 1863 -455 2478 -898 114 -83 171 -152 302 -372 212 -354 404 -791 626 -1420 564 -1601 907 -3340 958 -4858 l7 -202 -46 -69 c-287 -432 -811 -836 -1457 -1124 -469 -209 -1106 -394 -1590 -461 -63 -9 -129 -19 -146 -21 -31 -5 -35 -2 -295 351 -145 196 -262 359 -260 363 2 3 70 29 150 57 657 230 1224 519 1683 856 176 129 223 201 222 338 0 121 -68 226 -180 281 -55 27 -76 32 -138 32 -90 0 -152 -26 -250 -107 -264 -218 -729 -478 -1186 -664 -319 -129 -732 -260 -858 -272 -64 -7 -95 -15 -136 -39 -108 -61 -685 -169 -1151 -215 -676 -68 -1458 -64 -2100 10 -423 48 -971 153 -1097 210 -41 18 -81 26 -135 29 -184 9 -831 249 -1280 474 -304 151 -568 314 -748 460 -121 98 -159 115 -260 115 -98 -1 -153 -22 -224 -89 -114 -107 -132 -287 -41 -413 70 -97 442 -350 810 -552 289 -159 749 -357 1092 -470 54 -17 100 -35 102 -39 3 -4 -113 -167 -257 -362 l-263 -354 -44 3 c-25 2 -113 14 -197 27 -595 96 -1222 293 -1718 542 -201 101 -282 148 -465 269 -344 227 -603 471 -791 746 l-60 88 11 267 c54 1357 317 2795 780 4268 270 857 566 1572 824 1985 135 217 162 248 301 346 484 344 1116 608 1855 773 256 57 684 132 735 128 15 -2 24 -18 41 -72z" fill="#c152f5" class="color000 svgShape"></path><path d="M5740 9330c-400-42-769-273-1012-634-436-650-365-1552 165-2103 121-126 235-213 366-281 204-107 339-142 571-149 193-6 295 8 457 62 492 165 871 620 984 1183 27 135 37 421 19 556-47 359-200 686-436 935-258 272-568 416-929 434-55 3-138 1-185-3zm330-665c222-67 424-268 520-516 86-224 94-519 19-750-86-267-274-473-510-560-107-40-265-50-371-25-141 33-278 114-381 225-75 82-111 135-162 244-191 405-107 914 198 1204 85 81 164 130 269 168 123 44 290 48 418 10zM9875 9330c-227-24-421-95-614-224-409-274-668-759-688-1287-27-701 353-1332 944-1569 175-70 258-84 483-84 165 0 209 3 288 22 527 123 945 560 1090 1139 209 832-234 1709-983 1947-159 50-364 72-520 56zm288-656c347-87 603-443 624-870 16-323-88-600-301-801-287-272-685-272-972 0-213 201-317 478-301 801 23 470 330 849 717 885 83 8 160 3 233-15z" fill="#c152f5" class="color000 svgShape"></path></g></svg></g></svg>