<?xml version="1.0" standalone="no"?>
<!DOCTYPE svg PUBLIC "-//W3C//DTD SVG 1.0//EN" "http://www.w3.org/TR/2001/REC-SVG-20010904/DTD/svg10.dtd">
<svg xmlns="http://www.w3.org/2000/svg" xmlns:xlink="http://www.w3.org/1999/xlink" id="body_1" width="26" height="26">

<g transform="matrix(0.090277776 0 0 0.090277776 0 0)">
	<g transform="matrix(14.4 0 0 14.4 0 0)">
		<g transform="matrix(0.00125 0 -0 -0.00125 0 20)">
            <path d="M5825 13764C 5631 13741 5242 13673 5025 13625C 4114 13422 3336 13088 2742 12645C 2603 12542 2528 12465 2428 12325C 2232 12050 1914 11360 1665 10670C 1040 8943 648 6931 637 5390L637 5390L635 5125L661 5070C 692 5004 812 4822 887 4725C 1251 4258 1782 3869 2483 3556C 3145 3260 3934 3045 4564 2989C 4636 2983 4716 2981 4744 2985C 4806 2993 4889 3033 4928 3074C 4945 3091 5130 3344 5340 3635C 5550 3927 5725 4168 5729 4173C 5733 4177 5819 4162 5921 4140C 6566 4001 7204 3937 7935 3937C 8654 3937 9264 3997 9910 4132C 10017 4155 10113 4173 10123 4174C 10137 4175 10252 4023 10539 3625C 10969 3029 10971 3028 11089 2993C 11139 2979 11162 2978 11291 2989C 12237 3065 13444 3486 14203 4003C 14630 4294 15022 4706 15203 5055C 15234 5113 15235 5120 15238 5265C 15242 5435 15226 5853 15204 6135C 15080 7745 14649 9584 14032 11131C 13879 11514 13666 11966 13540 12175C 13361 12470 13261 12569 12904 12803C 12174 13282 11155 13626 10065 13761C 9794 13794 9713 13781 9620 13688C 9553 13621 9477 13432 9410 13165C 9392 13094 9374 13031 9370 13027C 9366 13022 9285 13030 9189 13044C 8648 13123 8109 13158 7705 13140C 7353 13124 7043 13095 6686 13044C 6588 13030 6506 13021 6504 13023C 6501 13025 6486 13081 6469 13146C 6427 13314 6353 13527 6310 13607C 6285 13654 6258 13687 6224 13713C 6134 13782 6059 13791 5825 13764zM5826 13015C 5864 12893 5866 12899 5780 12878C 5272 12753 4801 12593 4374 12400C 4031 12246 3594 12000 3518 11920C 3408 11803 3408 11621 3517 11500C 3577 11433 3646 11398 3732 11392C 3818 11386 3862 11401 3992 11483C 4566 11841 5365 12141 6207 12314C 7198 12518 8066 12552 9020 12424C 10075 12283 11099 11953 11801 11528C 12018 11397 12022 11395 12120 11395C 12220 11395 12278 11418 12343 11483C 12464 11604 12467 11812 12348 11931C 12309 11970 12032 12133 11808 12250C 11319 12503 10735 12720 10158 12861C 10060 12885 10020 12899 10020 12909C 10020 12928 10069 13090 10075 13090C 10077 13090 10143 13081 10222 13070C 11226 12926 12085 12615 12700 12172C 12814 12089 12871 12020 13002 11800C 13214 11446 13406 11009 13628 10380C 14192 8779 14535 7040 14586 5522L14586 5522L14593 5320L14547 5251C 14260 4819 13736 4415 13090 4127C 12621 3918 11984 3733 11500 3666C 11437 3657 11371 3647 11354 3645C 11323 3640 11319 3643 11059 3996C 10914 4192 10797 4355 10799 4359C 10801 4362 10869 4388 10949 4416C 11606 4646 12173 4935 12632 5272C 12808 5401 12855 5473 12854 5610C 12854 5731 12786 5836 12674 5891C 12619 5918 12598 5923 12536 5923C 12446 5923 12384 5897 12286 5816C 12022 5598 11557 5338 11100 5152C 10781 5023 10368 4892 10242 4880C 10178 4873 10147 4865 10106 4841C 9998 4780 9421 4672 8955 4626C 8279 4558 7497 4562 6855 4636C 6432 4684 5884 4789 5758 4846C 5717 4864 5677 4872 5623 4875C 5439 4884 4792 5124 4343 5349C 4039 5500 3775 5663 3595 5809C 3474 5907 3436 5924 3335 5924C 3237 5923 3182 5902 3111 5835C 2997 5728 2979 5548 3070 5422C 3140 5325 3512 5072 3880 4870C 4169 4711 4629 4513 4972 4400C 5026 4383 5072 4365 5074 4361C 5077 4357 4961 4194 4817 3999L4817 3999L4554 3645L4510 3648C 4485 3650 4397 3662 4313 3675C 3718 3771 3091 3968 2595 4217C 2394 4318 2313 4365 2130 4486C 1786 4713 1527 4957 1339 5232L1339 5232L1279 5320L1290 5587C 1344 6944 1607 8382 2070 9855C 2340 10712 2636 11427 2894 11840C 3029 12057 3056 12088 3195 12186C 3679 12530 4311 12794 5050 12959C 5306 13016 5734 13091 5785 13087C 5800 13085 5809 13069 5826 13015z" stroke="none" fill="#C152F5" fill-rule="nonzero" />
            <path d="M5740 9330C 5340 9288 4971 9057 4728 8696C 4292 8046 4363 7144 4893 6593C 5014 6467 5128 6380 5259 6312C 5463 6205 5598 6170 5830 6163C 6023 6157 6125 6171 6287 6225C 6779 6390 7158 6845 7271 7408C 7298 7543 7308 7829 7290 7964C 7243 8323 7090 8650 6854 8899C 6596 9171 6286 9315 5925 9333C 5870 9336 5787 9334 5740 9330zM6070 8665C 6292 8598 6494 8397 6590 8149C 6676 7925 6684 7630 6609 7399C 6523 7132 6335 6926 6099 6839C 5992 6799 5834 6789 5728 6814C 5587 6847 5450 6928 5347 7039C 5272 7121 5236 7174 5185 7283C 4994 7688 5078 8197 5383 8487C 5468 8568 5547 8617 5652 8655C 5775 8699 5942 8703 6070 8665zM9875 9330C 9648 9306 9454 9235 9261 9106C 8852 8832 8593 8347 8573 7819C 8546 7118 8926 6487 9517 6250C 9692 6180 9775 6166 10000 6166C 10165 6166 10209 6169 10288 6188C 10815 6311 11233 6748 11378 7327C 11587 8159 11144 9036 10395 9274C 10236 9324 10031 9346 9875 9330zM10163 8674C 10510 8587 10766 8231 10787 7804C 10803 7481 10699 7204 10486 7003C 10199 6731 9801 6731 9514 7003C 9301 7204 9197 7481 9213 7804C 9236 8274 9543 8653 9930 8689C 10013 8697 10090 8692 10163 8674z" stroke="none" fill="#C152F5" fill-rule="nonzero" />
		</g>
	</g>
</g>
</svg>