<svg width="22" height="22" viewBox="0 0 22 22" fill="none" xmlns="http://www.w3.org/2000/svg">
<path d="M15.4431 1.59277H5.81438C3.15547 1.59277 1 3.74824 1 6.40715V16.0359C1 18.6948 3.15547 20.8503 5.81438 20.8503H15.4431C18.102 20.8503 20.2575 18.6948 20.2575 16.0359V6.40715C20.2575 3.74824 18.102 1.59277 15.4431 1.59277Z" stroke="#C152F5" stroke-width="2" stroke-linecap="round" stroke-linejoin="round"/>
<path d="M14.4802 10.6149C14.599 11.4163 14.4622 12.2347 14.089 12.9538C13.7159 13.6728 13.1256 14.256 12.402 14.6202C11.6783 14.9844 10.8583 15.1112 10.0585 14.9825C9.25864 14.8538 8.51977 14.4761 7.94693 13.9033C7.3741 13.3305 6.99647 12.5916 6.86777 11.7918C6.73906 10.9919 6.86584 10.1719 7.23006 9.44828C7.59428 8.72466 8.17739 8.13431 8.89647 7.76119C9.61554 7.38808 10.434 7.2512 11.2353 7.37003C12.0527 7.49124 12.8095 7.87214 13.3938 8.45645C13.9781 9.04077 14.359 9.79752 14.4802 10.6149Z" stroke="#C152F5" stroke-width="2" stroke-linecap="round" stroke-linejoin="round"/>
<path d="M15.9248 2.09595H15.9354" stroke="#C152F5" stroke-width="2" stroke-linecap="round" stroke-linejoin="round"/>
</svg>
