<svg width="22" height="22" viewBox="0 0 22 22" fill="none" xmlns="http://www.w3.org/2000/svg">
<path d="M16.1773 1.3916H6.55973C3.90393 1.3916 1.75098 3.54456 1.75098 6.20036V15.8179C1.75098 18.4737 3.90393 20.6266 6.55973 20.6266H16.1773C18.8331 20.6266 20.986 18.4737 20.986 15.8179V6.20036C20.986 3.54456 18.8331 1.3916 16.1773 1.3916Z" stroke="white" stroke-width="1.99766" stroke-linecap="round" stroke-linejoin="round"/>
<path d="M15.2154 10.4033C15.3341 11.2037 15.1974 12.0212 14.8247 12.7394C14.452 13.4577 13.8624 14.0401 13.1396 14.4039C12.4168 14.7677 11.5977 14.8943 10.7988 14.7658C9.99994 14.6372 9.26192 14.26 8.68975 13.6879C8.11759 13.1157 7.7404 12.3777 7.61185 11.5788C7.4833 10.7799 7.60993 9.96082 7.97372 9.23804C8.33751 8.51526 8.91995 7.9256 9.63818 7.55292C10.3564 7.18025 11.1739 7.04353 11.9743 7.16222C12.7907 7.28329 13.5466 7.66374 14.1302 8.24737C14.7139 8.831 15.0943 9.58687 15.2154 10.4033Z" stroke="white" stroke-width="1.99766" stroke-linecap="round" stroke-linejoin="round"/>
<path d="M16.6582 1.89429H16.6679" stroke="white" stroke-width="1.99766" stroke-linecap="round" stroke-linejoin="round"/>
</svg>
