<svg width="26" height="25" viewBox="0 0 26 25" fill="none" xmlns="http://www.w3.org/2000/svg">
<g clip-path="url(#clip0_18_481)">
<path d="M25.8038 11.7702C25.8038 10.1076 24.3999 8.75987 22.668 8.75987C21.8006 8.75987 21.017 9.09933 20.4495 9.64582C18.6959 8.56004 16.4556 7.86812 13.995 7.76018C13.9965 6.75725 14.4644 5.82232 15.2795 5.19461C16.096 4.56584 17.1506 4.33036 18.172 4.54816L18.3123 4.57806C18.3109 4.61181 18.307 4.64489 18.307 4.67898C18.307 6.06683 19.479 7.19194 20.9246 7.19194C22.3703 7.19194 23.5423 6.06683 23.5423 4.67898C23.5423 3.29106 22.3703 2.16602 20.9246 2.16602C19.995 2.16602 19.1807 2.6325 18.7163 3.33357L18.4654 3.28007C17.0411 2.97626 15.5711 3.30473 14.4328 4.18136C13.2959 5.05693 12.6435 6.36116 12.642 7.76018C10.182 7.86807 7.94207 8.55965 6.18863 9.64492C5.62106 9.09833 4.83633 8.75981 3.96879 8.75981C2.23697 8.75987 0.833008 10.1076 0.833008 11.7702C0.833008 12.9286 1.51581 13.9322 2.51509 14.4355C2.43919 14.8081 2.39927 15.1892 2.39927 15.577C2.39927 19.9026 7.28792 23.4091 13.3184 23.4091C19.3488 23.4091 24.2375 19.9026 24.2375 15.577C24.2375 15.1894 24.1976 14.8085 24.1218 14.436C25.1211 13.9327 25.8038 12.9287 25.8038 11.7702ZM20.9246 3.465C21.622 3.465 22.1893 4.00959 22.1893 4.67903C22.1893 5.34841 21.622 5.893 20.9246 5.893C20.2273 5.893 19.66 5.34841 19.66 4.67903C19.66 4.00959 20.2274 3.465 20.9246 3.465ZM2.18606 11.7702C2.18606 10.8265 2.98579 10.0588 3.96879 10.0588C4.38981 10.0588 4.77624 10.2004 5.08115 10.4358C4.12743 11.2213 3.38908 12.1446 2.93064 13.1584C2.4804 12.848 2.18606 12.342 2.18606 11.7702ZM20.2295 20.0745C18.3995 21.3872 15.9451 22.1101 13.3184 22.1101C10.6918 22.1101 8.23739 21.3872 6.40736 20.0745C4.6953 18.8465 3.75239 17.2492 3.75239 15.577C3.75239 13.9047 4.6953 12.3074 6.40736 11.0794C8.23739 9.76671 10.6918 9.04377 13.3184 9.04377C15.9451 9.04377 18.3995 9.76671 20.2295 11.0794C21.9416 12.3074 22.8845 13.9047 22.8845 15.577C22.8844 17.2492 21.9416 18.8465 20.2295 20.0745ZM23.7058 13.1576C23.2472 12.144 22.5089 11.2209 21.5554 10.4356C21.8603 10.2002 22.247 10.0588 22.668 10.0588C23.651 10.0588 24.4508 10.8265 24.4508 11.7702C24.4507 12.342 24.156 12.8473 23.7058 13.1576Z" fill="white"/>
<path d="M9.33062 15.1188C10.1192 15.1188 10.7584 14.5051 10.7584 13.7481C10.7584 12.9911 10.1192 12.3774 9.33062 12.3774C8.54208 12.3774 7.90283 12.9911 7.90283 13.7481C7.90283 14.5051 8.54208 15.1188 9.33062 15.1188Z" fill="#EF6F6F"/>
<path d="M17.3067 15.1188C18.0952 15.1188 18.7345 14.5051 18.7345 13.7481C18.7345 12.9911 18.0952 12.3774 17.3067 12.3774C16.5181 12.3774 15.8789 12.9911 15.8789 13.7481C15.8789 14.5051 16.5181 15.1188 17.3067 15.1188Z" fill="#EF6F6F"/>
<path d="M16.7021 17.0785C15.6956 17.9588 14.3908 18.4436 13.0281 18.4436C11.4979 18.4436 10.0801 17.8516 9.03607 16.7766C8.78131 16.5142 8.35321 16.4999 8.07991 16.7446C7.80661 16.9891 7.79168 17.4002 8.0465 17.6625C9.33046 18.9843 11.1462 19.7425 13.0281 19.7425C14.7288 19.7425 16.3572 19.1374 17.6134 18.0386C17.8895 17.797 17.9095 17.3862 17.6578 17.1211C17.4063 16.8562 16.9786 16.8368 16.7021 17.0785Z" fill="white"/>
</g>
<defs>
<clipPath id="clip0_18_481">
<rect width="24.9708" height="23.972" fill="white" transform="translate(0.833008 0.801758)"/>
</clipPath>
</defs>
</svg>
