<svg width="26" height="24" viewBox="0 0 26 24" fill="none" xmlns="http://www.w3.org/2000/svg">
<g clip-path="url(#clip0_40_8)">
<path d="M25.187 10.9814C25.187 9.31685 23.7814 7.96753 22.0475 7.96753C21.1791 7.96753 20.3946 8.30739 19.8265 8.85451C18.0708 7.76747 15.8278 7.07474 13.3644 6.96667C13.3659 5.96257 13.8344 5.02655 14.6504 4.3981C15.4679 3.7686 16.5236 3.53285 17.5463 3.75089L17.6867 3.78083C17.6853 3.81462 17.6814 3.84774 17.6814 3.88186C17.6814 5.27134 18.8548 6.39776 20.3021 6.39776C21.7495 6.39776 22.9229 5.27134 22.9229 3.88186C22.9229 2.49233 21.7495 1.36597 20.3021 1.36597C19.3714 1.36597 18.5562 1.833 18.0912 2.53489L17.8401 2.48133C16.4141 2.17716 14.9423 2.50601 13.8027 3.38367C12.6645 4.26026 12.0113 5.56602 12.0098 6.96667C9.54695 7.07469 7.30439 7.76708 5.5489 8.85362C4.98066 8.30638 4.19501 7.96748 3.32646 7.96748C1.59261 7.96753 0.187012 9.31685 0.187012 10.9814C0.187012 12.1412 0.870614 13.1459 1.87106 13.6498C1.79508 14.0229 1.75511 14.4043 1.75511 14.7926C1.75511 19.1232 6.64947 22.6339 12.687 22.6339C18.7245 22.6339 23.6189 19.1232 23.6189 14.7926C23.6189 14.4046 23.5789 14.0233 23.503 13.6503C24.5035 13.1464 25.187 12.1413 25.187 10.9814ZM20.3021 2.66647C21.0003 2.66647 21.5682 3.2117 21.5682 3.88192C21.5682 4.55209 21.0003 5.09731 20.3021 5.09731C19.604 5.09731 19.036 4.55209 19.036 3.88192C19.036 3.2117 19.604 2.66647 20.3021 2.66647ZM1.54165 10.9814C1.54165 10.0366 2.34231 9.26798 3.32646 9.26798C3.74797 9.26798 4.13486 9.40973 4.44012 9.64543C3.48529 10.4318 2.74607 11.3562 2.2871 12.3712C1.83633 12.0604 1.54165 11.5539 1.54165 10.9814ZM19.6062 19.2954C17.774 20.6096 15.3167 21.3334 12.687 21.3334C10.0574 21.3334 7.60005 20.6096 5.76788 19.2954C4.05381 18.066 3.1098 16.4668 3.1098 14.7926C3.1098 13.1183 4.05381 11.5192 5.76788 10.2897C7.60005 8.97554 10.0574 8.25176 12.687 8.25176C15.3167 8.25176 17.774 8.97554 19.6062 10.2897C21.3203 11.5192 22.2643 13.1183 22.2643 14.7926C22.2642 16.4668 21.3203 18.066 19.6062 19.2954ZM23.0865 12.3704C22.6274 11.3556 21.8883 10.4315 20.9336 9.64521C21.2389 9.40951 21.626 9.26798 22.0476 9.26798C23.0317 9.26798 23.8324 10.0366 23.8324 10.9814C23.8323 11.5538 23.5373 12.0597 23.0865 12.3704Z" fill="#C152F5"/>
<path d="M8.69411 14.3339C9.48358 14.3339 10.1236 13.7195 10.1236 12.9616C10.1236 12.2037 9.48358 11.5894 8.69411 11.5894C7.90464 11.5894 7.26465 12.2037 7.26465 12.9616C7.26465 13.7195 7.90464 14.3339 8.69411 14.3339Z" fill="#EF6F6F"/>
<path d="M16.6799 14.3339C17.4694 14.3339 18.1094 13.7195 18.1094 12.9616C18.1094 12.2037 17.4694 11.5894 16.6799 11.5894C15.8905 11.5894 15.2505 12.2037 15.2505 12.9616C15.2505 13.7195 15.8905 14.3339 16.6799 14.3339Z" fill="#EF6F6F"/>
<path d="M16.0747 16.2959C15.067 17.1772 13.7608 17.6626 12.3964 17.6626C10.8644 17.6626 9.44504 17.0699 8.39974 15.9937C8.14469 15.731 7.71608 15.7167 7.44247 15.9616C7.16885 16.2064 7.1539 16.6179 7.40901 16.8806C8.69448 18.204 10.5123 18.963 12.3965 18.963C14.0991 18.963 15.7294 18.3572 16.9871 17.2571C17.2635 17.0153 17.2835 16.604 17.0316 16.3386C16.7797 16.0733 16.3516 16.0539 16.0747 16.2959Z" fill="#C152F5"/>
</g>
<defs>
<clipPath id="clip0_40_8">
<rect width="25" height="24" fill="white" transform="translate(0.187012)"/>
</clipPath>
</defs>
</svg>
