<svg width="23" height="21" viewBox="0 0 23 21" fill="none" xmlns="http://www.w3.org/2000/svg">
<path d="M21.9384 1.98337C21.049 2.63719 20.0642 3.13726 19.022 3.46432C18.4626 2.79403 17.7192 2.31895 16.8923 2.10332C16.0654 1.88769 15.1949 1.94193 14.3985 2.2587C13.6022 2.57547 12.9184 3.13948 12.4396 3.87446C11.9608 4.60944 11.7102 5.47991 11.7217 6.36816V7.33611C10.0894 7.38022 8.47205 7.00295 7.01359 6.23792C5.55513 5.47289 4.30086 4.34383 3.36248 2.95131C3.36248 2.95131 -0.352713 11.6628 8.00647 15.5346C6.09363 16.8878 3.81495 17.5663 1.50488 17.4705C9.86406 22.3102 20.0808 17.4705 20.0808 6.33912C20.08 6.06951 20.0551 5.80055 20.0065 5.53573C20.9545 4.56148 21.6234 3.33144 21.9384 1.98337V1.98337Z" stroke="#C152F5" stroke-width="2" stroke-linecap="round" stroke-linejoin="round"/>
</svg>
