<svg width="23" height="21" viewBox="0 0 23 21" fill="none" xmlns="http://www.w3.org/2000/svg">
<path d="M21.6123 1.78072C20.7239 2.43378 19.7403 2.93327 18.6993 3.25995C18.1406 2.59044 17.398 2.11591 16.5721 1.90053C15.7461 1.68516 14.8767 1.73933 14.0812 2.05573C13.2858 2.37213 12.6028 2.93548 12.1246 3.6696C11.6464 4.40372 11.3961 5.27318 11.4075 6.16039V7.12721C9.77715 7.17127 8.16167 6.79444 6.70491 6.03031C5.24816 5.26617 3.99535 4.13843 3.05806 2.74753C3.05806 2.74753 -0.65279 11.4489 7.69663 15.3161C5.78603 16.6677 3.51 17.3454 1.20264 17.2498C9.55206 22.0839 19.7569 17.2498 19.7569 6.13139C19.756 5.86209 19.7312 5.59345 19.6827 5.32893C20.6295 4.35583 21.2977 3.12722 21.6123 1.78072V1.78072Z" stroke="white" stroke-width="1.99766" stroke-linecap="round" stroke-linejoin="round"/>
</svg>
